<svg width="29" height="28" viewBox="0 0 29 28" fill="none" xmlns="http://www.w3.org/2000/svg">
<path fill-rule="evenodd" clip-rule="evenodd" d="M28.9772 13.7924C28.9772 21.4088 22.7134 27.5831 14.9866 27.5831C7.25988 27.5831 0.996094 21.4088 0.996094 13.7924C0.996094 6.17601 7.25988 0.00170898 14.9866 0.00170898C22.7134 0.00170898 28.9772 6.17601 28.9772 13.7924ZM27.858 13.7924C27.858 20.7995 22.0953 26.4798 14.9866 26.4798C7.87802 26.4798 2.11534 20.7995 2.11534 13.7924C2.11534 6.78532 7.87802 1.10496 14.9866 1.10496C22.0953 1.10496 27.858 6.78532 27.858 13.7924ZM12.7482 11.0343V11.5859H13.8674V20.4119H12.7482V20.9636H13.8674H16.1059H17.2251V20.4119H16.1059V11.0343H13.8674H12.7482ZM16.6655 8.27612C16.6655 9.19009 15.9139 9.93101 14.9866 9.93101C14.0594 9.93101 13.3078 9.19009 13.3078 8.27612C13.3078 7.36216 14.0594 6.62124 14.9866 6.62124C15.9139 6.62124 16.6655 7.36216 16.6655 8.27612Z" fill="white"/>
</svg>
